<?xml version="1.0" standalone="no"?>
<!DOCTYPE svg PUBLIC "-//W3C//DTD SVG 20010904//EN"
 "http://www.w3.org/TR/2001/REC-SVG-20010904/DTD/svg10.dtd">
<svg version="1.0" xmlns="http://www.w3.org/2000/svg"
 width="1024.000000pt" height="1024.000000pt" viewBox="0 0 1024.000000 1024.000000"
 preserveAspectRatio="xMidYMid meet">
<metadata>
Created by potrace 1.11, written by Peter Selinger 2001-2013
</metadata>
<g transform="translate(0.000000,1024.000000) scale(0.100000,-0.100000)"
fill="#000000" stroke="none">
<path d="M1770 7122 l-36 -3 1 -1997 0 -1997 1365 -3 1365 -2 0 472 c0 361 -3
474 -12 478 -7 3 -348 5 -758 5 -410 -1 -745 2 -746 5 -1 3 -2 688 -2 1524
l-2 1519 -570 1 c-313 0 -586 0 -605 -2z"/>
<path d="M4671 7120 c-4 -3 -7 -904 -7 -2002 l0 -1998 603 0 603 0 2 1134 3
1134 78 -122 c43 -66 155 -238 248 -381 93 -143 225 -344 292 -448 67 -103
182 -278 255 -390 155 -236 195 -298 201 -312 2 -5 8 -14 13 -20 11 -13 44
-64 232 -352 l158 -243 582 0 582 0 0 2000 0 2000 -31 1 c-162 3 -1165 0
-1172 -4 -5 -3 -9 -441 -8 -1075 0 -752 -3 -1068 -11 -1062 -5 5 -45 65 -88
132 -42 68 -106 168 -142 223 -97 149 -134 207 -464 720 -166 259 -364 565
-438 680 -75 116 -160 248 -190 295 -30 47 -56 87 -58 89 -5 6 -1235 7 -1243
1z"/>
</g>
</svg>
