<?xml version="1.0" standalone="no"?>
<!DOCTYPE svg PUBLIC "-//W3C//DTD SVG 20010904//EN"
 "http://www.w3.org/TR/2001/REC-SVG-20010904/DTD/svg10.dtd">
<svg version="1.0" xmlns="http://www.w3.org/2000/svg"
 width="1024.000000pt" height="1024.000000pt" viewBox="0 0 1024.000000 1024.000000"
 preserveAspectRatio="xMidYMid meet">
<metadata>
Created by potrace 1.11, written by Peter Selinger 2001-2013
</metadata>
<g transform="translate(0.000000,1024.000000) scale(0.100000,-0.100000)"
fill="#000000" stroke="none">
<path d="M1730 5120 l0 -2000 1365 0 1365 0 0 475 0 475 -755 0 -755 0 0 1525
0 1525 -610 0 -610 0 0 -2000z"/>
<path d="M4660 5120 l0 -2000 605 0 605 0 2 1134 3 1134 739 -1134 739 -1134
583 0 584 0 0 2000 0 2000 -610 0 -610 0 -2 -1073 -3 -1073 -690 1073 -690
1072 -627 1 -628 0 0 -2000z"/>
</g>
</svg>
